<svg xmlns="http://www.w3.org/2000/svg" width="1200" height="630" viewBox="0 0 1200 630">
  <defs>
    <linearGradient id="bg" x1="0%" y1="0%" x2="100%" y2="100%">
      <stop offset="0%" style="stop-color:#3B4F5C;stop-opacity:1" />
      <stop offset="100%" style="stop-color:#2a3a45;stop-opacity:1" />
    </linearGradient>
  </defs>
  <rect width="1200" height="630" fill="url(#bg)" />
  <!-- Gold accent line -->
  <rect x="0" y="0" width="1200" height="4" fill="#D4A574" />
  <!-- Wave mark -->
  <g transform="translate(100, 150) scale(2.5)">
    <path d="M-150,-75 C-100,-115 -40,-115 10,-75 C60,-35 120,-35 170,-75" fill="none" stroke="#D4A574" stroke-width="5" stroke-linecap="round"/>
    <path d="M-150,-25 C-100,-65 -40,-65 10,-25 C60,15 120,15 170,-25" fill="none" stroke="#C0A07E" stroke-width="5" stroke-linecap="round"/>
    <path d="M-150,25 C-100,-15 -40,-15 10,25 C60,65 120,65 170,25" fill="none" stroke="#8FB5B2" stroke-width="5" stroke-linecap="round"/>
    <path d="M-150,75 C-100,35 -40,35 10,75 C60,115 120,115 170,75" fill="none" stroke="#7BA3A8" stroke-width="5" stroke-linecap="round"/>
    <path d="M-150,125 C-100,85 -40,85 10,125 C60,165 120,165 170,125" fill="none" stroke="#6B97A0" stroke-width="5" stroke-linecap="round"/>
  </g>
  <!-- Company name -->
  <text x="600" y="260" font-family="Georgia, serif" font-size="60" font-weight="bold" fill="#ffffff" letter-spacing="1">Rising Tide</text>
  <text x="600" y="320" font-family="Georgia, serif" font-size="38" fill="rgba(255,255,255,0.7)" letter-spacing="2">Property Group Partners</text>
  <!-- Tagline -->
  <text x="600" y="400" font-family="Georgia, serif" font-size="24" fill="#D4A574" font-style="italic">Real Assets. Real Partners.</text>
  <!-- Divider line -->
  <rect x="600" y="440" width="120" height="2" fill="#D4A574" opacity="0.6" />
  <!-- Description -->
  <text x="600" y="490" font-family="Arial, sans-serif" font-size="20" fill="rgba(255,255,255,0.5)">Commercial Real Estate · Florida&apos;s Space Coast</text>
  <!-- URL -->
  <text x="600" y="570" font-family="Arial, sans-serif" font-size="16" fill="rgba(255,255,255,0.3)">risingtidepg.com</text>
  <!-- Bottom accent line with teal gradient -->
  <rect x="0" y="626" width="400" height="4" fill="#D4A574" />
  <rect x="400" y="626" width="400" height="4" fill="#8FB5B2" />
  <rect x="800" y="626" width="400" height="4" fill="#6B97A0" />
</svg>
